<svg width="458" height="460" viewBox="0 0 458 460" fill="none" xmlns="http://www.w3.org/2000/svg">
<path d="M424.934 0H170.662C152.54 0 137.798 14.743 137.798 32.864V109.998H167.798V32.864C167.798 31.285 169.083 30 170.662 30H424.934C426.513 30 427.798 31.285 427.798 32.864V287.136C427.798 288.716 426.513 290.001 424.934 290.001H350.205V320.001H424.934C443.055 320.001 457.798 305.258 457.798 287.136V32.864C457.797 14.743 443.055 0 424.934 0Z" fill="#00ADB5"/>
<path d="M287.339 139.998H33.068C14.946 139.998 0.203003 154.741 0.203003 172.863V427.135C0.204003 445.257 14.946 460 33.068 460H287.34C305.462 460 320.205 445.257 320.205 427.136V172.863C320.206 154.741 305.461 139.998 287.339 139.998ZM287.341 430H33.068C31.488 430 30.203 428.715 30.203 427.136V172.863C30.203 171.283 31.488 169.998 33.068 169.998H287.34C288.92 169.998 290.205 171.283 290.205 172.863V427.136H290.206C290.206 428.715 288.92 430 287.341 430Z" fill="#00ADB5"/>
</svg>
